<svg width="17" height="12" viewBox="0 0 17 12" fill="none" xmlns="http://www.w3.org/2000/svg">
<path d="M0.5 1C0.5 0.723859 0.723858 0.5 1 0.5H16C16.2761 0.5 16.5 0.723858 16.5 1C16.5 1.27614 16.2761 1.5 16 1.5L1 1.5C0.723858 1.5 0.5 1.27614 0.5 1Z" fill="black"/>
<path d="M4.25 6C4.25 5.72386 4.47386 5.5 4.75 5.5L16 5.5C16.2761 5.5 16.5 5.72386 16.5 6C16.5 6.27614 16.2761 6.5 16 6.5L4.75 6.5C4.47386 6.5 4.25 6.27614 4.25 6Z" fill="black"/>
<path d="M8.5 10.5C8.22386 10.5 8 10.7239 8 11C8 11.2761 8.22386 11.5 8.5 11.5L16 11.5C16.2761 11.5 16.5 11.2761 16.5 11C16.5 10.7239 16.2761 10.5 16 10.5L8.5 10.5Z" fill="black"/>
</svg>
