<svg width="13" height="12" viewBox="0 0 13 12" fill="none" xmlns="http://www.w3.org/2000/svg">
<path d="M1.55033 0.343137C1.35507 0.147874 1.03849 0.147875 0.843224 0.343136C0.647962 0.538398 0.647962 0.854981 0.843224 1.05024L5.79295 5.99997L0.843224 10.9497C0.647962 11.145 0.647962 11.4615 0.843224 11.6568C1.03849 11.8521 1.35507 11.8521 1.55033 11.6568L6.50006 6.70708L11.4498 11.6568C11.6451 11.8521 11.9617 11.8521 12.1569 11.6568C12.3522 11.4616 12.3522 11.145 12.1569 10.9497L7.20717 5.99997L12.1569 1.05021C12.3522 0.854947 12.3522 0.538364 12.1569 0.343102C11.9617 0.14784 11.6451 0.14784 11.4498 0.343102L6.50006 5.29287L1.55033 0.343137Z" fill="black"/>
</svg>
