<svg width="29" height="27" viewBox="0 0 29 27" fill="none" xmlns="http://www.w3.org/2000/svg">
<path fill-rule="evenodd" clip-rule="evenodd" d="M20.2977 19.7801C18.146 21.8769 15.1735 23.1738 11.8901 23.1738C5.32338 23.1738 0 17.9862 0 11.5869C0 5.18763 5.32338 0 11.8901 0C18.4568 0 23.7802 5.18763 23.7802 11.5869C23.7802 14.1433 22.9306 16.5064 21.4916 18.4226L28.7321 25.4785C29.0893 25.8265 29.0893 26.3909 28.7321 26.7389C28.3749 27.087 27.7958 27.087 27.4386 26.7389L20.2977 19.7801ZM21.951 11.5869C21.951 17.0017 17.4466 21.3912 11.8901 21.3912C6.33365 21.3912 1.82925 17.0017 1.82925 11.5869C1.82925 6.17213 6.33365 1.7826 11.8901 1.7826C17.4466 1.7826 21.951 6.17213 21.951 11.5869Z" fill="black"/>
</svg>
