<svg width="32" height="26" viewBox="0 0 32 26" fill="none" xmlns="http://www.w3.org/2000/svg">
<path d="M0.014469 1.7387C-0.0654355 1.33817 0.193651 0.948538 0.593155 0.868428C1.08263 0.770276 1.55558 0.669744 2.00824 0.573526C3.20465 0.319214 4.25932 0.0950289 5.10273 0.024567C5.69519 -0.0249287 6.27582 -0.00997129 6.78698 0.1662C7.3175 0.349038 7.73964 0.694529 8.01425 1.21863C8.38118 1.77233 8.65849 2.23571 8.89542 2.6316L8.89717 2.63453C9.14256 3.04456 9.33469 3.36475 9.54495 3.65986C9.78816 4.00123 10.0626 4.31888 10.4783 4.67416C10.617 4.61383 10.7654 4.57468 10.9187 4.55931C14.6768 4.18254 18.7951 4.07313 22.2562 4.15082C23.9876 4.18969 25.5697 4.2757 26.8713 4.40124C28.1327 4.52289 29.2482 4.69154 29.9744 4.93424C30.7596 5.19664 31.2286 5.8049 31.4927 6.3485C31.7579 6.89423 31.8933 7.52 31.9553 8.12844C32.0803 9.35386 31.9386 10.824 31.5847 12.2432C31.2302 13.6646 30.636 15.1436 29.7739 16.351C28.9164 17.5518 27.6909 18.6182 26.0619 18.8904C23.6878 19.2871 20.2344 19.2794 17.4712 19.187C16.0692 19.1402 14.8088 19.0699 13.8989 19.0115C13.4436 18.9822 13.0753 18.9558 12.82 18.9367C12.6924 18.9272 12.5929 18.9194 12.5249 18.914L12.4469 18.9077L12.4192 18.9055C12.419 18.9054 12.4184 18.9054 12.5409 17.4313C12.5409 17.4313 21.3932 18.1709 25.8194 17.4313C30.2456 16.6918 31.7209 7.07711 29.5079 6.33751C27.4402 5.64649 19.5769 5.33367 12.5362 5.89875C12.2897 5.91854 12.0442 5.9394 11.8 5.96136C11.5537 5.98349 11.3088 6.00675 11.0655 6.03114L12.5409 17.4313L12.4192 18.9055C11.7265 18.8476 11.1672 18.3127 11.0778 17.6217L9.60242 6.22147C9.58701 6.10245 9.58623 5.98308 9.59939 5.86582C9.06107 5.41658 8.68185 4.99327 8.34439 4.51962C8.09666 4.17192 7.87623 3.80359 7.64081 3.41021L7.63204 3.39556C7.39025 2.99155 7.12149 2.54261 6.76328 2.00391C6.74631 1.9784 6.73094 1.95184 6.71726 1.92441C6.6222 1.7338 6.49973 1.63133 6.30735 1.56503C6.08082 1.48696 5.73934 1.45568 5.22525 1.49863C4.48062 1.56084 3.56699 1.75501 2.41957 1.99887C1.94819 2.09905 1.4373 2.20763 0.882515 2.31888C0.483011 2.39899 0.0943736 2.13923 0.014469 1.7387Z" fill="black"/>
<path fill-rule="evenodd" clip-rule="evenodd" d="M14.754 26C16.3837 26 17.7048 24.6755 17.7048 23.0417C17.7048 21.4078 16.3837 20.0833 14.754 20.0833C13.1243 20.0833 11.8032 21.4078 11.8032 23.0417C11.8032 24.6755 13.1243 26 14.754 26ZM14.754 24.9646C15.8133 24.9646 16.672 24.1037 16.672 23.0417C16.672 21.9796 15.8133 21.1187 14.754 21.1187C13.6947 21.1187 12.836 21.9796 12.836 23.0417C12.836 24.1037 13.6947 24.9646 14.754 24.9646Z" fill="black"/>
<path fill-rule="evenodd" clip-rule="evenodd" d="M28.0325 23.0417C28.0325 24.6755 26.7114 26 25.0817 26C23.452 26 22.1309 24.6755 22.1309 23.0417C22.1309 21.4078 23.452 20.0833 25.0817 20.0833C26.7114 20.0833 28.0325 21.4078 28.0325 23.0417ZM26.9997 23.0417C26.9997 24.1037 26.141 24.9646 25.0817 24.9646C24.0224 24.9646 23.1637 24.1037 23.1637 23.0417C23.1637 21.9796 24.0224 21.1187 25.0817 21.1187C26.141 21.1187 26.9997 21.9796 26.9997 23.0417Z" fill="black"/>
</svg>
