<svg width="94" height="32" viewBox="0 0 94 32" fill="none" xmlns="http://www.w3.org/2000/svg">
<path d="M11.2361 31.266C8.12008 31.266 5.56141 30.5313 3.56008 29.062C1.55874 27.5673 0.482078 25.4393 0.330078 22.678H8.27208C8.34808 23.6153 8.62675 24.2993 9.10808 24.73C9.58941 25.1606 10.2101 25.376 10.9701 25.376C11.6541 25.376 12.2114 25.2113 12.6421 24.882C13.0981 24.5273 13.3261 24.046 13.3261 23.438C13.3261 22.6526 12.9587 22.0446 12.2241 21.614C11.4894 21.1833 10.2987 20.702 8.65208 20.17C6.90408 19.5873 5.48541 19.03 4.39608 18.498C3.33208 17.9406 2.39474 17.1426 1.58408 16.104C0.798745 15.04 0.406078 13.6593 0.406078 11.962C0.406078 10.2393 0.836745 8.76997 1.69808 7.55397C2.55941 6.31264 3.75008 5.3753 5.27008 4.74197C6.79008 4.10864 8.51274 3.79197 10.4381 3.79197C13.5541 3.79197 16.0367 4.52664 17.8861 5.99597C19.7607 7.43997 20.7614 9.4793 20.8881 12.114H12.7941C12.7687 11.3033 12.5154 10.6953 12.0341 10.29C11.5781 9.88463 10.9827 9.68197 10.2481 9.68197C9.69075 9.68197 9.23475 9.84664 8.88008 10.176C8.52541 10.5053 8.34808 10.974 8.34808 11.582C8.34808 12.0886 8.53808 12.532 8.91808 12.912C9.32341 13.2666 9.81741 13.5833 10.4001 13.862C10.9827 14.1153 11.8441 14.4446 12.9841 14.85C14.6814 15.4326 16.0747 16.0153 17.1641 16.598C18.2787 17.1553 19.2287 17.9533 20.0141 18.992C20.8247 20.0053 21.2301 21.2973 21.2301 22.868C21.2301 24.464 20.8247 25.8953 20.0141 27.162C19.2287 28.4286 18.0761 29.4293 16.5561 30.164C15.0614 30.8986 13.2881 31.266 11.2361 31.266Z" fill="black"/>
<path d="M32.1405 2.87997V31H24.6925V2.87997H32.1405Z" fill="black"/>
<path d="M40.144 7.70597C38.8267 7.70597 37.7626 7.3513 36.952 6.64197C36.1667 5.9073 35.774 4.9953 35.774 3.90597C35.774 2.7913 36.1667 1.86664 36.952 1.13197C37.7626 0.397302 38.8267 0.0299683 40.144 0.0299683C41.436 0.0299683 42.4747 0.397302 43.26 1.13197C44.0707 1.86664 44.476 2.7913 44.476 3.90597C44.476 4.9953 44.0707 5.9073 43.26 6.64197C42.4747 7.3513 41.436 7.70597 40.144 7.70597ZM43.83 9.68197V31H36.382V9.68197H43.83Z" fill="black"/>
<path d="M46.8554 20.322C46.8554 18.118 47.3114 16.1926 48.2234 14.546C49.1354 12.8993 50.4021 11.6326 52.0234 10.746C53.6701 9.8593 55.5448 9.41597 57.6474 9.41597C60.3581 9.41597 62.6381 10.1633 64.4874 11.658C66.3368 13.1273 67.5274 15.192 68.0594 17.852H60.1554C59.6994 16.4586 58.8128 15.762 57.4954 15.762C56.5581 15.762 55.8108 16.1546 55.2534 16.94C54.7214 17.7 54.4554 18.8273 54.4554 20.322C54.4554 21.8166 54.7214 22.9566 55.2534 23.742C55.8108 24.5273 56.5581 24.92 57.4954 24.92C58.8381 24.92 59.7248 24.2233 60.1554 22.83H68.0594C67.5274 25.4646 66.3368 27.5293 64.4874 29.024C62.6381 30.5186 60.3581 31.266 57.6474 31.266C55.5448 31.266 53.6701 30.8226 52.0234 29.936C50.4021 29.0493 49.1354 27.7826 48.2234 26.136C47.3114 24.4893 46.8554 22.5513 46.8554 20.322Z" fill="black"/>
<path d="M84.4915 31L78.6015 22.26V31H71.1535V2.87997H78.6015V18.042L84.4915 9.68197H93.4215L85.0235 20.398L93.5735 31H84.4915Z" fill="black"/>
</svg>
