<svg width="25" height="15" viewBox="0 0 25 15" fill="none" xmlns="http://www.w3.org/2000/svg">
<path fill-rule="evenodd" clip-rule="evenodd" d="M23.949 1.92847C24.115 1.38247 23.949 0.980469 23.154 0.980469H20.529C19.861 0.980469 19.553 1.32747 19.386 1.71047C19.386 1.71047 18.051 4.90647 16.16 6.98247C15.548 7.58447 15.27 7.77547 14.936 7.77547C14.769 7.77547 14.518 7.58447 14.518 7.03747V1.92847C14.518 1.27247 14.334 0.980469 13.778 0.980469H9.65002C9.23302 0.980469 8.98202 1.28447 8.98202 1.57347C8.98202 2.19447 9.92802 2.33847 10.025 4.08647V7.88447C10.025 8.71747 9.87202 8.86847 9.53802 8.86847C8.64802 8.86847 6.48302 5.65747 5.19802 1.98347C4.94902 1.26847 4.69702 0.980469 4.02602 0.980469H1.39902C0.649023 0.980469 0.499023 1.32747 0.499023 1.71047C0.499023 2.39247 1.38902 5.78047 4.64402 10.2615C6.81402 13.3215 9.86902 14.9805 12.652 14.9805C14.321 14.9805 14.527 14.6125 14.527 13.9775V11.6645C14.527 10.9275 14.685 10.7805 15.214 10.7805C15.604 10.7805 16.271 10.9725 17.829 12.4475C19.609 14.1965 19.902 14.9805 20.904 14.9805H23.529C24.279 14.9805 24.655 14.6125 24.439 13.8845C24.201 13.1605 23.351 12.1095 22.224 10.8625C21.612 10.1525 20.694 9.38747 20.415 9.00447C20.026 8.51347 20.137 8.29447 20.415 7.85747C20.415 7.85747 23.615 3.43147 23.948 1.92847H23.949Z" fill="black"/>
</svg>
